<mxfile host="65bd71144e">
    <diagram id="U8vYm4H8WRFvBKnTJwXP" name="Page-1">
        <mxGraphModel dx="2017" dy="764" grid="0" gridSize="10" guides="1" tooltips="1" connect="1" arrows="1" fold="1" page="0" pageScale="1" pageWidth="850" pageHeight="1100" math="0" shadow="0">
            <root>
                <mxCell id="0"/>
                <mxCell id="1" parent="0"/>
                <mxCell id="2" value="Internet-Facing Threat Data (OSINT Feeds)" style="swimlane;whiteSpace=wrap;html=1;" parent="1" vertex="1">
                    <mxGeometry x="10" y="10" width="320" height="200" as="geometry"/>
                </mxCell>
                <mxCell id="3" value="" style="shape=image;verticalLabelPosition=bottom;labelBackgroundColor=default;verticalAlign=top;aspect=fixed;imageAspect=0;image=https://attack.mitre.org/theme/images/ATT&amp;CK_red.png;" parent="2" vertex="1">
                    <mxGeometry x="70" y="50" width="97.2" height="20" as="geometry"/>
                </mxCell>
                <mxCell id="4" value="" style="shape=image;verticalLabelPosition=bottom;labelBackgroundColor=default;verticalAlign=top;aspect=fixed;imageAspect=0;image=https://securitymadein.lu/images/logo_circl.jpg;" parent="2" vertex="1">
                    <mxGeometry x="10" y="90" width="200" height="100" as="geometry"/>
                </mxCell>
                <mxCell id="5" value="" style="shape=image;verticalLabelPosition=bottom;labelBackgroundColor=default;verticalAlign=top;aspect=fixed;imageAspect=0;image=data:image/png,iVBORw0KGgoAAAANSUhEUgAAAOEAAADgCAMAAADCMfHtAAAAmVBMVEX///8ARlsAQFYAN08AO1J1j5pthZAANU4AMkwAPFObq7LT3+MAQ1mdsrr7/f3n7e9igIy0vsQbVmk4anvDzdFEcH9IdoVWe4rt8vMALkkASV72+Pne5ui3xMlaeojr7/F7l6EgV2qKoaq5yc6ousA0YnLP2d0AJEIAHj4iX3FBZ3dQcX8GTmJ/m6Zhe4iNoapahZIAFDl+k51qxU8/AAAGZ0lEQVR4nO2a6XajOBCFjYQNsoWh44XNdrzS0wlOZ+b9H26QxCLhfRK7Tyb3++UIBLoqqeqKk04HAAAAAAAAAAAAAAAAAAAAAAAAAAAAAAAAAAAAAAAAAAAAAAAAAAAAAAAAAAAAgA8x2GR/egh3pvfz7U8P4c50ae9PD+HOQOHX55srjAazx43kXpxV6P3163EjuRfnFTqjx43kXkDh40ZyL6DwcSO5hnQ2yLJs5t/S51DhbDwfD4byp1RY/J2lNzwxWgRBsDjoMRfNJb3ldjY0+vREH+MMMNyLph96S9Z7ybnNSLJ6Xc6fmwFrT1Ys1trT2wpnvdyNYzKpFS6TOKa7Gw4gnksIcbft5r5DGhilk7l20c9Z0WdsKBzZhDh97Z7QYZxbBZwT5lhedWFASQt7cVphllM2XXZHsRosHYXxaL/PWX71whiOxCjI67DV3rctA+JOmzj7T0Un21Q4IUVTo3CQMKM/69ZXiNWCBCcVpom9kzZGCfJswkX0opxqk3mezJUvoYOjCtUcq1Cwl1riZYVRIvpwRh3HoYzwA4V6DOnpGPbpkx4sz06UbVvS6bUKu2qq2fKYwvwteHt7W7zkUi6t77mscCkeS5662yLTzNfBjrumQrIQT674fVLhzt7rbylWaevHRfxcxsfiq9a6FgrL7d1J/b68J6ls70WFqRDIR7VNjgb7eqRSoRudGpGpkNKNfrGuFteXjS0VEyoCNDcvKIX13HoiirTKRxcVbhyhor3yFUrhyURhKIxi1zhM3K5w+MLFRi/eSVo9Wgr9FdeW8kWFco3z4++8RWEaOx9UmBGxQAdiqXKzwrQUpnIqqr10UeGafY7Cjk2NOna7wq6IXk+mm1auORZDWtW06xQ6x0+rNymc2IF+8WaFqagDxV6W24YZl47tQ1KF+aJCT27vydF0cpPCLeV6qrlZ4dYWGTLtDJmeRyR6Lu0M+2JULKwEX1Q4i2UJyvtHwnhTLu2MKFkXs+F7/n9S+KtKH6J8aRHrVPVwGobhdPTExAywpvZeroehLOuc2db7NjP9klTIJ9Oa93MKo9B1KKXO33L9ePGuVBhf9TljIPyMK7pmMoj6hGuepnSXYbOwLiv089KbcWLzVVcXqTwNbyzN0zmFneEmeFntFmtpqDa9tWodVz/OIyLHc/lTDJnp9qHtSy2+bBbWFb4029m87spY0Mxe25fy1VmFBZF/ck2fJxJFohyUEMRX2oOO+FKr3qhXKOyk/YTatRhm1eW/7UvZ+Rh+BOlnLDW5M+GUdV+j9mEYqo3oygruXF0tFFk/JE6pUiQ0TSGZhjVn9+FHGL6KYhiWf4nUQF5NhbzOPdHaEqagnA6lkLbOh/xAoWgeeIElzX193JEKnSurxYfIxNqzq2qzkQFtnGSrHnbmMp2W21vVf8PJDndCodc5wiyUB43qCHpTPfwQwsjwXbX1opWZa9oK5SrkZRGKdgcBS+WmPvhUoBC387x81cMUyjyjWbW9EJzUktoKO/80ibeTygVu7B9fVB7WOqBUSEdklZ9qHqZQ+BnLbpL4TDg3ux7igUJxAOFVmZXxt/RKrmzd8fNS6Z0erVD4GRJqg5RxqXzagUKZbOuQyzTMtF0XqYV44l0h0WrRoxRKP2NYUTnq+jzQUjibSGdapc9n6by0xCS/WjRr3je+To6lDw8enGn20qfpAxnKZVqZIa1apINtV34H0E7JUhHPyxnyA2YqDnZe/TtdS8fgVLP5IIVpop9oFT2xuValaHVKd+OCwvrKikaSZtemVH5Lo9b77/5y5Mqq7jRWsWfbDh919/3f3RFV7qh2ysrTOK7Gz+XnK1QbyTzWj2Up3mgKDeyVnkfGvDTQTHwrlGPuNbu2R5QdtRlTF7XZOfxeajjiT1I4XJADy6vKFlkcU8i5zXvPxs3jFeXaHYQutSXfM64VsX5pZucxCjO3OHPFbY+1jotWW42lL34rbMbz3fqgEPj7hKnv9uKENDG++mXTpIwtLy6Slad5+oFL28TLT1c4+CF4brVGsnWm3SGZb7LjeSGaL0cJo/zp3TvUv1lPc+7Yya/AG5u9fhyibZdv/r8Y/wug8OsDhV8fKPz6QOHXBwq/Pt9AYRxcvulLk83Hl28CAAAAAAAAAAAAAAAAAAAAAAAAAAAAAAAAAAAAAAAAAAAAAAAAAAAAAAAAAMB34V9E+WtCUjO9SQAAAABJRU5ErkJggg==;" parent="2" vertex="1">
                    <mxGeometry x="210" y="30" width="100.44" height="100" as="geometry"/>
                </mxCell>
                <mxCell id="79" style="edgeStyle=none;html=1;dashed=1;" parent="1" target="24" edge="1">
                    <mxGeometry relative="1" as="geometry">
                        <mxPoint x="510" y="530" as="sourcePoint"/>
                    </mxGeometry>
                </mxCell>
                <mxCell id="85" value="Access Files" style="edgeLabel;html=1;align=center;verticalAlign=middle;resizable=0;points=[];" parent="79" vertex="1" connectable="0">
                    <mxGeometry x="-0.3059" relative="1" as="geometry">
                        <mxPoint x="-11" y="-10" as="offset"/>
                    </mxGeometry>
                </mxCell>
                <mxCell id="15" value="VirtualBox" style="swimlane;whiteSpace=wrap;html=1;" parent="1" vertex="1">
                    <mxGeometry x="510" y="430" width="330" height="390" as="geometry"/>
                </mxCell>
                <mxCell id="aC7ZrQ0k2m_uGofAxehS-103" style="edgeStyle=none;html=1;dashed=1;" parent="15" source="14" target="aC7ZrQ0k2m_uGofAxehS-102" edge="1">
                    <mxGeometry relative="1" as="geometry"/>
                </mxCell>
                <mxCell id="aC7ZrQ0k2m_uGofAxehS-139" value="outputs" style="edgeLabel;html=1;align=center;verticalAlign=middle;resizable=0;points=[];" parent="aC7ZrQ0k2m_uGofAxehS-103" vertex="1" connectable="0">
                    <mxGeometry x="-0.3429" y="-1" relative="1" as="geometry">
                        <mxPoint x="-7" y="1" as="offset"/>
                    </mxGeometry>
                </mxCell>
                <mxCell id="14" value="Malware Sandbox" style="sketch=0;aspect=fixed;html=1;points=[];align=center;image;fontSize=12;image=img/lib/mscae/VirtualMachineWindows.svg;" parent="15" vertex="1">
                    <mxGeometry x="210" y="200" width="110" height="101.2" as="geometry"/>
                </mxCell>
                <mxCell id="41" value="Purple Victim Host&lt;br&gt;192.168.56.2&lt;br&gt;10.0.0.50" style="sketch=0;aspect=fixed;html=1;points=[];align=center;image;fontSize=12;image=img/lib/mscae/VirtualMachineWindows.svg;labelPosition=center;verticalLabelPosition=bottom;verticalAlign=top;" parent="15" vertex="1">
                    <mxGeometry x="210.00000000000003" y="39" width="110.2" height="101.38" as="geometry"/>
                </mxCell>
                <mxCell id="aC7ZrQ0k2m_uGofAxehS-97" style="edgeStyle=none;html=1;dashed=1;entryX=-0.041;entryY=0.516;entryDx=0;entryDy=0;entryPerimeter=0;" parent="15" source="16" target="41" edge="1">
                    <mxGeometry relative="1" as="geometry">
                        <mxPoint x="200" y="92" as="targetPoint"/>
                    </mxGeometry>
                </mxCell>
                <mxCell id="aC7ZrQ0k2m_uGofAxehS-148" value="MSF CnC" style="edgeLabel;html=1;align=center;verticalAlign=middle;resizable=0;points=[];" parent="aC7ZrQ0k2m_uGofAxehS-97" vertex="1" connectable="0">
                    <mxGeometry x="-0.2591" y="1" relative="1" as="geometry">
                        <mxPoint x="3" y="10" as="offset"/>
                    </mxGeometry>
                </mxCell>
                <mxCell id="aC7ZrQ0k2m_uGofAxehS-96" value="" style="group" parent="15" vertex="1" connectable="0">
                    <mxGeometry x="19.999999999999993" y="39" width="116.68" height="105" as="geometry"/>
                </mxCell>
                <mxCell id="16" value="Purple Attacker Host&lt;br&gt;192.168.56.3" style="sketch=0;aspect=fixed;pointerEvents=1;shadow=0;dashed=0;html=1;strokeColor=none;labelPosition=center;verticalLabelPosition=bottom;verticalAlign=top;align=center;fillColor=#00188D;shape=mxgraph.azure.computer" parent="aC7ZrQ0k2m_uGofAxehS-96" vertex="1">
                    <mxGeometry width="116.68" height="105" as="geometry"/>
                </mxCell>
                <mxCell id="21" value="" style="shape=image;verticalLabelPosition=bottom;labelBackgroundColor=default;verticalAlign=top;aspect=fixed;imageAspect=0;image=data:image/png,iVBORw0KGgoAAAANSUhEUgAAASsAAACpCAMAAABEdevhAAAAgVBMVEX///82e/Aud/B1ofTr8v0fcu/W4/uHrPUxefDe6fwode9zn/R5o/Q3fvEjc+9PifGnv/dbj/LD1foVbu/I2fpDhPFjlvPO3fuuxvjm7v2owvdKh/G0yvn5+/+UtPbw9f5sm/OauPeBqPWNr/ZWjfK5zvkAZO4Ja+9ilPOfvPeYtvYm0goUAAAH8UlEQVR4nO2da3uiOhCAhYoGrPSCtrVKvbTdbc///4FHLcwMkMtolwrpvF92nzYIvCVhkkziYCAIgiAIgiAIgiAIgiAIgs+MtteTq1/I5Hp8OzvJ1Ps8S8JfSpJEwT1f1S5Twa8mG3NVjaNLX+vFiV55qmbZpa+0A2S8Ruvml1fAI+qGoyqWx+pAFjNcPaWXvsxOkD4xXL0kl77MTpC8MFyNw6K0Sg5cOtxpkURH6SrkhA2lK3W9iON4MfSXw/3VWSzPcZUwQwzPKKMAceXmPFecxs0/xBWf81xtW7+uLiKu+IgrPue5+mz9urqIuOIjrvic5+q29evqIuKKj7jiI674iCs+4oqPuOIjrviIKz7iio+44nOeq+fWr6uLiCs+rbjC2bWRpVT8CMwWjjPHt8+AM02FTO65iu7JsfTQXrIVV8ssKvhjLvTytywUZcvcceaHCGZ/06nrMvH0ylV0T/wHLmNiL9mKqztIPcqMZVaY9abma8eJ1zRFLnp0lH6D0zu17onhs8Nre8lLuRpFmMqVumpgNUHHdUskS8wLV0OSceN8TuiTcnwOHTXWL1f5vMy42atyZzPF1SzV9N1efOmVqw98rFLGiWt5X+GdvXi3XDkeBZerHTY/ycZ92nwaVMnsL3efXH2SVyAnT3VWTxR3zCPNoWAXXH2rDt4TVVNH+HdkUn4c/Lu0lu+Uq/Q7rmKsgCriBNbr8oBwV35uZusPdMzVN+rgOsD3f8Ra3ALBVTQsLYQ72wHeuCKhUsSbvi4/Tc0HOwg1bCGWL642JFqwPhzAolyAkLwM7uERs4VYnrh6JdHCB+OMAxJcRbNBXv4/tB3sh6sVLlJRzrGFgvLOVbDvYT+UlTCyvEC9cPVIooWAEy3QY8KHAWnnbcPYPrhaYCcwSDjRwoFJedDxpMPywbQFsR64yqenRguHg5LyoHRIr9cWYnng6oOMLbAngla11vwZKqHxgkn38d+6uvsxV6TDnPLXXdxVquC+HkPMMTW9G1pzVb5YWnd1i+06Z2yhYAFHZcU4M8SyxmrcmqvND7kiK6XDOeNUBdtGQAWVUG0Mx3TsuVrZyzVdxdBE86OFA3No2ctTDqEqR4YZjZ67WtNXoHWMoAoEVyoEwRCOmkY7eu5qSV6BjsHyCtflccdA9IsVVMI3/UH9djXBDnN0yhIxElyh4RxaPsN69l672uIrMHXN7VV4h0coJG0TVELTks+2YtEfcPWOqlwzMIaLCxSdPQeDphCrv65GZGyBtWMGAJ2/IKWx1Fo5QqzeuhoGiH3ot8EnNHNp5QHawBzFRntcT11F1S1omNvWFMA8X+0mcCIo1YZYPXWlSIf5CHOA78AIlVQV51AJ9SFWT10F9Knak1wxTlOAExF1wxB26UOsvrqqww9Fc/iQxj1gJdROMPriSumbGA0YGjSTjiBG1YZY/XZFGi3SW+FdmS6M2ll+129XKhmTvLzIcXDBGoIrzaVhNkikebP22FUyXwx22CNUiTPl8cAtHKEbmIAuny7E6q+rdJMfEvnwR6FhfKAKxmVq1uDxAX6raf865So5IWYotpgkPZ0gZcxMYHC1L9+EJOY2x2g75eqE5wqKvtAmyz05OOZud6cJsbrlij3eTjq9pLPj7kPnTFNa8Z1ydVZeH00mdm4Kdc/fcbL5Wd1y5Whw9HOpJE3UkZhHhhIYNEIsD1xVmnzjTOiR9SmbvjZCLB9cDXHiK0isQ1nPp2z6qupLjnxwRUeTtQE38HZCFWyGWF64ohM6tqEs8howb5dqDrH8cJUTV5ahrFcolrysDbulrv+DQqo24+GHK7oOIMiMQ1lYxrJcDtNCgqxaqi1XHz/rinaiA1NiAwZXpqnlyqU3QqwlnKDfrmhyn2koC4MraweBLMCsZt60tXbpp10NHknopF86SIKrxJZSk2MlrI6ceuOKprgrbeY1BlfGFKsvYE1TEFbeE625amPfD/s6LzKUpXQp/RhcORagknYtpAGIR65GdHSmuSSHBFepfTaRDEZURok8cjX4JLLSxogKBlfOBfPwPQXVEKstV2flIX/T1eAN53WayyYxeyp1JcGP9CEWugrGZnbFUEfHXS3IGHB9+Iks2HXv2oFNH92imbiyfKVEVvwlOu6KbvpRn6a5gmeOcUlbrIQkxOJ941GZJNF1V5AqfrxL2oIbgyYt5MuNSGnPXOXkdiqrRVbYB+KkwaMWcqOeuap2ome6Q1lf1EDiVtw5xTdXlU40DiiTwQPWGnuyLw0Grm25eruUKzoTjUNZWxyUsu/BUIKDDbislzeq2hFXN4kq+GsuNMrCslQIQ1lTOJK5yP49U3CuMsTC09uAmAE+IXUk0rXi6nMCWEqtsNRkU1z3Bn/CyhAZrMlnlMJfJxw2RayywHM6/jytuPIUccVHXPGRfWv5iCs+4oqPuOIjrviIKz7iis9SXLERV3zEFR9xxWcurtjAjp3iyom44iOu+IgrPuKKz1RcsRFXfMQVn7NchbvZvQW60mbkEWW6uXlrUwKkJ4aaJchARBNc8Iuo+g9soMHJSnliLVWrrNCtf62GD7iWex+JWUsgvXdl2CewBisDxXdXzN3hHjm3XskG8tBV5s7NPPLKuHfPXUXsja93mbMaeu1KZZyAoWB2kyWWrPE9CY0ZMnvZnpFEc+4m/V+MPneTKxt0ifzGXrRXTK63J+zlLAiCIAiCIAiCIAiCIAhCD/kfFabE3yC/8DsAAAAASUVORK5CYII=;" parent="aC7ZrQ0k2m_uGofAxehS-96" vertex="1">
                    <mxGeometry x="14.11" y="31" width="44.23" height="25" as="geometry"/>
                </mxCell>
                <mxCell id="aC7ZrQ0k2m_uGofAxehS-110" value="" style="shape=image;verticalLabelPosition=bottom;labelBackgroundColor=default;verticalAlign=top;aspect=fixed;imageAspect=0;image=https://www.kali.org/tools/metasploit-framework/images/metasploit-framework-logo.svg;" parent="aC7ZrQ0k2m_uGofAxehS-96" vertex="1">
                    <mxGeometry x="70" y="26" width="35" height="35" as="geometry"/>
                </mxCell>
                <mxCell id="aC7ZrQ0k2m_uGofAxehS-102" value="Analysis Results" style="aspect=fixed;html=1;points=[];align=center;image;fontSize=12;image=img/lib/azure2/general/Files.svg;" parent="15" vertex="1">
                    <mxGeometry x="46" y="215.6" width="64" height="70" as="geometry"/>
                </mxCell>
                <mxCell id="aC7ZrQ0k2m_uGofAxehS-133" value="" style="shape=image;verticalLabelPosition=bottom;labelBackgroundColor=default;verticalAlign=top;aspect=fixed;imageAspect=0;image=https://upload.wikimedia.org/wikipedia/commons/d/d5/Virtualbox_logo.png;" parent="15" vertex="1">
                    <mxGeometry x="290" y="350" width="40" height="40" as="geometry"/>
                </mxCell>
                <mxCell id="52" style="edgeStyle=orthogonalEdgeStyle;html=1;entryX=0;entryY=0.5;entryDx=0;entryDy=0;dashed=1;curved=1;exitX=1;exitY=0.15;exitDx=0;exitDy=0;exitPerimeter=0;" parent="1" source="23" target="aC7ZrQ0k2m_uGofAxehS-117" edge="1">
                    <mxGeometry relative="1" as="geometry">
                        <mxPoint x="530" y="100" as="targetPoint"/>
                    </mxGeometry>
                </mxCell>
                <mxCell id="87" value="PyMISP API&lt;br&gt;- Query Data&lt;br&gt;- Upload Files&lt;br&gt;- Upload Data" style="edgeLabel;html=1;align=center;verticalAlign=middle;resizable=0;points=[];" parent="52" vertex="1" connectable="0">
                    <mxGeometry x="0.0342" y="-1" relative="1" as="geometry">
                        <mxPoint x="-1" y="-3" as="offset"/>
                    </mxGeometry>
                </mxCell>
                <mxCell id="55" style="edgeStyle=orthogonalEdgeStyle;html=1;dashed=1;" parent="1" source="23" edge="1">
                    <mxGeometry relative="1" as="geometry">
                        <mxPoint x="510" y="470" as="targetPoint"/>
                        <Array as="points">
                            <mxPoint x="510" y="470"/>
                        </Array>
                    </mxGeometry>
                </mxCell>
                <mxCell id="84" value="Vagrant APIs" style="edgeLabel;html=1;align=center;verticalAlign=middle;resizable=0;points=[];" parent="55" vertex="1" connectable="0">
                    <mxGeometry x="0.1048" y="-2" relative="1" as="geometry">
                        <mxPoint x="-15" y="-12" as="offset"/>
                    </mxGeometry>
                </mxCell>
                <mxCell id="78" style="edgeStyle=none;html=1;dashed=1;exitX=1;exitY=0.4;exitDx=0;exitDy=0;exitPerimeter=0;" parent="1" source="23" edge="1">
                    <mxGeometry relative="1" as="geometry">
                        <mxPoint x="350" y="510" as="targetPoint"/>
                    </mxGeometry>
                </mxCell>
                <mxCell id="86" value="Save Files" style="edgeLabel;html=1;align=center;verticalAlign=middle;resizable=0;points=[];" parent="78" vertex="1" connectable="0">
                    <mxGeometry x="0.2347" y="1" relative="1" as="geometry">
                        <mxPoint x="-7" y="11" as="offset"/>
                    </mxGeometry>
                </mxCell>
                <mxCell id="aC7ZrQ0k2m_uGofAxehS-126" style="edgeStyle=none;html=1;dashed=1;" parent="1" source="23" edge="1">
                    <mxGeometry relative="1" as="geometry">
                        <mxPoint x="140" y="370" as="targetPoint"/>
                    </mxGeometry>
                </mxCell>
                <mxCell id="aC7ZrQ0k2m_uGofAxehS-127" value="Seed MISP Data" style="edgeLabel;html=1;align=center;verticalAlign=middle;resizable=0;points=[];" parent="aC7ZrQ0k2m_uGofAxehS-126" vertex="1" connectable="0">
                    <mxGeometry x="-0.2857" y="1" relative="1" as="geometry">
                        <mxPoint x="1" y="-2" as="offset"/>
                    </mxGeometry>
                </mxCell>
                <mxCell id="23" value="Management Console&lt;br&gt;10.0.0.138" style="fontColor=#0066CC;verticalAlign=top;verticalLabelPosition=bottom;labelPosition=center;align=center;html=1;outlineConnect=0;fillColor=#CCCCCC;strokeColor=#6881B3;gradientColor=none;gradientDirection=north;strokeWidth=2;shape=mxgraph.networks.terminal;" parent="1" vertex="1">
                    <mxGeometry x="50" y="430" width="180" height="200" as="geometry"/>
                </mxCell>
                <mxCell id="aC7ZrQ0k2m_uGofAxehS-107" style="edgeStyle=none;html=1;entryX=1;entryY=0.6;entryDx=0;entryDy=0;entryPerimeter=0;dashed=1;exitX=-0.071;exitY=0.786;exitDx=0;exitDy=0;exitPerimeter=0;" parent="1" source="24" target="23" edge="1">
                    <mxGeometry relative="1" as="geometry"/>
                </mxCell>
                <mxCell id="aC7ZrQ0k2m_uGofAxehS-108" value="Read Files" style="edgeLabel;html=1;align=center;verticalAlign=middle;resizable=0;points=[];" parent="aC7ZrQ0k2m_uGofAxehS-107" vertex="1" connectable="0">
                    <mxGeometry x="-0.183" y="1" relative="1" as="geometry">
                        <mxPoint as="offset"/>
                    </mxGeometry>
                </mxCell>
                <mxCell id="24" value="File Share (per VM)" style="sketch=0;pointerEvents=1;shadow=0;dashed=0;html=1;strokeColor=none;fillColor=#505050;labelPosition=center;verticalLabelPosition=bottom;verticalAlign=top;outlineConnect=0;align=center;shape=mxgraph.office.services.network_file_share_service;" parent="1" vertex="1">
                    <mxGeometry x="355" y="495" width="70" height="70" as="geometry"/>
                </mxCell>
                <mxCell id="91" style="edgeStyle=orthogonalEdgeStyle;html=1;dashed=1;" parent="1" edge="1">
                    <mxGeometry relative="1" as="geometry">
                        <mxPoint x="330" y="70" as="targetPoint"/>
                        <mxPoint x="540" y="70" as="sourcePoint"/>
                    </mxGeometry>
                </mxCell>
                <mxCell id="92" value="Pull Threat Data - IOCs, Attack-Patterns" style="edgeLabel;html=1;align=center;verticalAlign=middle;resizable=0;points=[];" parent="91" vertex="1" connectable="0">
                    <mxGeometry x="0.1117" relative="1" as="geometry">
                        <mxPoint x="17" y="-10" as="offset"/>
                    </mxGeometry>
                </mxCell>
                <mxCell id="aC7ZrQ0k2m_uGofAxehS-104" style="edgeStyle=none;html=1;dashed=1;" parent="1" source="aC7ZrQ0k2m_uGofAxehS-102" target="24" edge="1">
                    <mxGeometry relative="1" as="geometry"/>
                </mxCell>
                <mxCell id="aC7ZrQ0k2m_uGofAxehS-105" value="Save To" style="edgeLabel;html=1;align=center;verticalAlign=middle;resizable=0;points=[];" parent="aC7ZrQ0k2m_uGofAxehS-104" vertex="1" connectable="0">
                    <mxGeometry x="0.4081" y="-2" relative="1" as="geometry">
                        <mxPoint x="15" y="15" as="offset"/>
                    </mxGeometry>
                </mxCell>
                <mxCell id="aC7ZrQ0k2m_uGofAxehS-112" value="The &lt;b&gt;&lt;u&gt;File Share&lt;/u&gt;&lt;/b&gt; is used to store the following objects:&lt;br&gt;&lt;br&gt;- Malware Payloads&lt;br&gt;- Malware Analysis Tools&lt;br&gt;- Malware Analysis outputs / logs&lt;br&gt;- Automation Scripts (setup, tools execution, etc.)" style="shape=note2;boundedLbl=1;whiteSpace=wrap;html=1;size=25;verticalAlign=top;align=left;fillColor=#fff2cc;strokeColor=#d6b656;" parent="1" vertex="1">
                    <mxGeometry x="230" y="610" width="270" height="160" as="geometry"/>
                </mxCell>
                <mxCell id="aC7ZrQ0k2m_uGofAxehS-115" value="" style="group" parent="1" vertex="1" connectable="0">
                    <mxGeometry x="525" y="220" width="310" height="170" as="geometry"/>
                </mxCell>
                <mxCell id="13" value="Elastic SIEM | AWS EC2: t2.large - 52.2.249.116" style="points=[[0,0],[0.25,0],[0.5,0],[0.75,0],[1,0],[1,0.25],[1,0.5],[1,0.75],[1,1],[0.75,1],[0.5,1],[0.25,1],[0,1],[0,0.75],[0,0.5],[0,0.25]];outlineConnect=0;gradientColor=none;html=1;whiteSpace=wrap;fontSize=12;fontStyle=0;container=0;pointerEvents=0;collapsible=0;recursiveResize=0;shape=mxgraph.aws4.group;grIcon=mxgraph.aws4.group_ec2_instance_contents;strokeColor=#D86613;fillColor=none;verticalAlign=top;align=left;spacingLeft=30;fontColor=#D86613;dashed=0;" parent="aC7ZrQ0k2m_uGofAxehS-115" vertex="1">
                    <mxGeometry width="310" height="170" as="geometry"/>
                </mxCell>
                <mxCell id="10" value="" style="shape=image;verticalLabelPosition=bottom;labelBackgroundColor=default;verticalAlign=top;aspect=fixed;imageAspect=0;image=https://assets-global.website-files.com/5e0fd4aa98f2dc47fcd00bb7/5e14d9029a07bd0ec2ed1c1e_Will-Migrating-to-the-Cloud-Save-Money-5.png;" parent="aC7ZrQ0k2m_uGofAxehS-115" vertex="1">
                    <mxGeometry x="19.740000000000002" y="30" width="270.52" height="90" as="geometry"/>
                </mxCell>
                <mxCell id="aC7ZrQ0k2m_uGofAxehS-120" value="" style="sketch=0;aspect=fixed;html=1;points=[];align=center;image;fontSize=12;image=img/lib/mscae/Docker.svg;" parent="aC7ZrQ0k2m_uGofAxehS-115" vertex="1">
                    <mxGeometry x="265" y="130" width="36.59" height="30" as="geometry"/>
                </mxCell>
                <mxCell id="aC7ZrQ0k2m_uGofAxehS-140" style="edgeStyle=none;html=1;exitX=0.5;exitY=1;exitDx=0;exitDy=0;entryX=0.5;entryY=0;entryDx=0;entryDy=0;dashed=1;" parent="1" source="aC7ZrQ0k2m_uGofAxehS-117" target="13" edge="1">
                    <mxGeometry relative="1" as="geometry"/>
                </mxCell>
                <mxCell id="aC7ZrQ0k2m_uGofAxehS-141" value="Disseminate IOCs" style="edgeLabel;html=1;align=center;verticalAlign=middle;resizable=0;points=[];" parent="aC7ZrQ0k2m_uGofAxehS-140" vertex="1" connectable="0">
                    <mxGeometry x="-0.4402" relative="1" as="geometry">
                        <mxPoint y="9" as="offset"/>
                    </mxGeometry>
                </mxCell>
                <mxCell id="aC7ZrQ0k2m_uGofAxehS-117" value="Dockerized - MISP" style="swimlane;whiteSpace=wrap;html=1;" parent="1" vertex="1">
                    <mxGeometry x="545" y="30" width="270" height="150" as="geometry"/>
                </mxCell>
                <mxCell id="aC7ZrQ0k2m_uGofAxehS-118" value="" style="sketch=0;aspect=fixed;html=1;points=[];align=center;image;fontSize=12;image=img/lib/mscae/Docker.svg;" parent="aC7ZrQ0k2m_uGofAxehS-117" vertex="1">
                    <mxGeometry x="228.66999999999996" y="110" width="36.59" height="30" as="geometry"/>
                </mxCell>
                <mxCell id="aC7ZrQ0k2m_uGofAxehS-145" value="" style="shape=image;verticalLabelPosition=bottom;verticalAlign=top;imageAspect=0;image=https://www.misp-project.org/assets/images/ico/ms-icon-310x310.png" parent="aC7ZrQ0k2m_uGofAxehS-117" vertex="1">
                    <mxGeometry x="75.84" y="25" width="118.32" height="125" as="geometry"/>
                </mxCell>
                <mxCell id="aC7ZrQ0k2m_uGofAxehS-147" value="" style="shape=image;verticalLabelPosition=bottom;verticalAlign=top;imageAspect=0;image=https://1000logos.net/wp-content/uploads/2020/08/MySQL-Logo.png" parent="aC7ZrQ0k2m_uGofAxehS-117" vertex="1">
                    <mxGeometry x="5.840000000000032" y="30" width="70" height="37.5" as="geometry"/>
                </mxCell>
                <mxCell id="aC7ZrQ0k2m_uGofAxehS-124" value="Dockerized - Neo4j" style="swimlane;whiteSpace=wrap;html=1;" parent="1" vertex="1">
                    <mxGeometry x="10" y="230" width="230" height="140" as="geometry"/>
                </mxCell>
                <mxCell id="aC7ZrQ0k2m_uGofAxehS-125" value="" style="sketch=0;aspect=fixed;html=1;points=[];align=center;image;fontSize=12;image=img/lib/mscae/Docker.svg;" parent="aC7ZrQ0k2m_uGofAxehS-124" vertex="1">
                    <mxGeometry x="190" y="100" width="36.59" height="30" as="geometry"/>
                </mxCell>
                <mxCell id="aC7ZrQ0k2m_uGofAxehS-109" value="" style="shape=image;verticalLabelPosition=bottom;labelBackgroundColor=default;verticalAlign=top;aspect=fixed;imageAspect=0;image=https://upload.wikimedia.org/wikipedia/commons/thumb/e/e5/Neo4j-logo_color.png/800px-Neo4j-logo_color.png;" parent="aC7ZrQ0k2m_uGofAxehS-124" vertex="1">
                    <mxGeometry x="34.989999999999995" y="30" width="160.01" height="60" as="geometry"/>
                </mxCell>
                <mxCell id="aC7ZrQ0k2m_uGofAxehS-134" style="edgeStyle=none;html=1;dashed=1;entryX=0.806;entryY=1;entryDx=0;entryDy=0;entryPerimeter=0;" parent="1" source="41" target="13" edge="1">
                    <mxGeometry relative="1" as="geometry">
                        <mxPoint x="775" y="400" as="targetPoint"/>
                    </mxGeometry>
                </mxCell>
                <mxCell id="aC7ZrQ0k2m_uGofAxehS-135" value="Endpoint Logs" style="edgeLabel;html=1;align=center;verticalAlign=middle;resizable=0;points=[];" parent="aC7ZrQ0k2m_uGofAxehS-134" vertex="1" connectable="0">
                    <mxGeometry x="0.4179" y="-5" relative="1" as="geometry">
                        <mxPoint x="-5" as="offset"/>
                    </mxGeometry>
                </mxCell>
                <mxCell id="28" value="" style="shape=image;verticalLabelPosition=bottom;labelBackgroundColor=default;verticalAlign=top;aspect=fixed;imageAspect=0;image=https://upload.wikimedia.org/wikipedia/commons/thumb/3/38/Jupyter_logo.svg/640px-Jupyter_logo.svg.png;" parent="1" vertex="1">
                    <mxGeometry x="60" y="516.25" width="32.38" height="37.5" as="geometry"/>
                </mxCell>
                <mxCell id="29" value="" style="shape=image;verticalLabelPosition=bottom;labelBackgroundColor=default;verticalAlign=top;aspect=fixed;imageAspect=0;image=https://upload.wikimedia.org/wikipedia/commons/thumb/c/c3/Python-logo-notext.svg/1200px-Python-logo-notext.svg.png;" parent="1" vertex="1">
                    <mxGeometry x="117.15" y="450" width="45.69" height="50" as="geometry"/>
                </mxCell>
                <mxCell id="93" value="" style="shape=image;verticalLabelPosition=bottom;labelBackgroundColor=default;verticalAlign=top;aspect=fixed;imageAspect=0;image=https://media.trustradius.com/product-logos/Om/zv/1VCT5FRFFDZQ.PNG;" parent="1" vertex="1">
                    <mxGeometry x="179.91" y="510" width="40.09" height="50" as="geometry"/>
                </mxCell>
                <mxCell id="aC7ZrQ0k2m_uGofAxehS-149" value="" style="shape=image;verticalLabelPosition=bottom;verticalAlign=top;imageAspect=0;image=https://avatars.githubusercontent.com/u/388785?s=200&amp;v=4" parent="1" vertex="1">
                    <mxGeometry x="122.43" y="516.25" width="35.13" height="35.25" as="geometry"/>
                </mxCell>
                <mxCell id="94" value="&lt;font color=&quot;#190e05&quot;&gt;&lt;br&gt;&lt;br&gt;The &lt;b style=&quot;&quot;&gt;&lt;u&gt;Management Console&lt;/u&gt;&amp;nbsp;&lt;/b&gt;it the main host OS powering the following system components:&lt;br&gt;&lt;br&gt;- Python-based &lt;b&gt;Orchestrator&lt;/b&gt; utility.&lt;br&gt;- Docker for &lt;b&gt;MISP&lt;/b&gt; and &lt;b&gt;Neo4j&lt;/b&gt;&lt;br&gt;- &lt;b&gt;Jupyter Notebook&lt;/b&gt; for Data Analysis&lt;br&gt;- &lt;b&gt;Vagrant&lt;/b&gt; for the Virtual Machines&lt;br&gt;&lt;/font&gt;" style="shape=note;strokeWidth=2;fontSize=12;size=20;whiteSpace=wrap;html=1;fillColor=#fff2cc;strokeColor=#d6b656;fontColor=#666600;align=left;verticalAlign=top;" vertex="1" parent="1">
                    <mxGeometry y="670" width="220" height="170" as="geometry"/>
                </mxCell>
            </root>
        </mxGraphModel>
    </diagram>
    <diagram id="evR3Vs_gxr0SkJHvZcy9" name="Page-2">
        <mxGraphModel dx="1542" dy="764" grid="0" gridSize="10" guides="1" tooltips="1" connect="1" arrows="1" fold="1" page="1" pageScale="1" pageWidth="850" pageHeight="1100" math="0" shadow="0">
            <root>
                <mxCell id="0"/>
                <mxCell id="1" parent="0"/>
                <mxCell id="-OJOVilmV5lf9Wo72msT-19" style="edgeStyle=none;html=1;entryX=0;entryY=0.5;entryDx=0;entryDy=0;" parent="1" source="-OJOVilmV5lf9Wo72msT-1" target="-OJOVilmV5lf9Wo72msT-9" edge="1">
                    <mxGeometry relative="1" as="geometry"/>
                </mxCell>
                <mxCell id="-OJOVilmV5lf9Wo72msT-21" style="edgeStyle=none;html=1;entryX=0;entryY=0.5;entryDx=0;entryDy=0;" parent="1" source="-OJOVilmV5lf9Wo72msT-1" target="-OJOVilmV5lf9Wo72msT-10" edge="1">
                    <mxGeometry relative="1" as="geometry"/>
                </mxCell>
                <mxCell id="-OJOVilmV5lf9Wo72msT-22" style="edgeStyle=none;html=1;entryX=0;entryY=0.5;entryDx=0;entryDy=0;" parent="1" source="-OJOVilmV5lf9Wo72msT-1" target="-OJOVilmV5lf9Wo72msT-11" edge="1">
                    <mxGeometry relative="1" as="geometry"/>
                </mxCell>
                <mxCell id="-OJOVilmV5lf9Wo72msT-23" style="edgeStyle=none;html=1;entryX=0;entryY=0.5;entryDx=0;entryDy=0;" parent="1" source="-OJOVilmV5lf9Wo72msT-1" target="-OJOVilmV5lf9Wo72msT-12" edge="1">
                    <mxGeometry relative="1" as="geometry"/>
                </mxCell>
                <mxCell id="-OJOVilmV5lf9Wo72msT-24" style="edgeStyle=none;html=1;entryX=0;entryY=0.5;entryDx=0;entryDy=0;" parent="1" source="-OJOVilmV5lf9Wo72msT-1" target="-OJOVilmV5lf9Wo72msT-16" edge="1">
                    <mxGeometry relative="1" as="geometry"/>
                </mxCell>
                <mxCell id="-OJOVilmV5lf9Wo72msT-1" value="Sysem Operator" style="shape=umlActor;verticalLabelPosition=bottom;verticalAlign=top;html=1;outlineConnect=0;" parent="1" vertex="1">
                    <mxGeometry x="70" y="290" width="30" height="60" as="geometry"/>
                </mxCell>
                <mxCell id="-OJOVilmV5lf9Wo72msT-3" value="CTI Automation" style="swimlane;whiteSpace=wrap;html=1;" parent="1" vertex="1">
                    <mxGeometry x="225" y="60" width="225" height="620" as="geometry"/>
                </mxCell>
                <mxCell id="-OJOVilmV5lf9Wo72msT-9" value="manage threat data" style="ellipse;whiteSpace=wrap;html=1;" parent="-OJOVilmV5lf9Wo72msT-3" vertex="1">
                    <mxGeometry x="53" y="60" width="120" height="80" as="geometry"/>
                </mxCell>
                <mxCell id="-OJOVilmV5lf9Wo72msT-10" value="analyze malware samples" style="ellipse;whiteSpace=wrap;html=1;" parent="-OJOVilmV5lf9Wo72msT-3" vertex="1">
                    <mxGeometry x="52.5" y="280" width="120" height="80" as="geometry"/>
                </mxCell>
                <mxCell id="-OJOVilmV5lf9Wo72msT-11" value="emulate TTPs" style="ellipse;whiteSpace=wrap;html=1;" parent="-OJOVilmV5lf9Wo72msT-3" vertex="1">
                    <mxGeometry x="52.5" y="170" width="120" height="80" as="geometry"/>
                </mxCell>
                <mxCell id="-OJOVilmV5lf9Wo72msT-12" value="threat data analysis" style="ellipse;whiteSpace=wrap;html=1;" parent="-OJOVilmV5lf9Wo72msT-3" vertex="1">
                    <mxGeometry x="53" y="410" width="120" height="80" as="geometry"/>
                </mxCell>
                <mxCell id="-OJOVilmV5lf9Wo72msT-16" value="&amp;nbsp;rebuild / deploy" style="ellipse;whiteSpace=wrap;html=1;" parent="-OJOVilmV5lf9Wo72msT-3" vertex="1">
                    <mxGeometry x="53" y="520" width="120" height="80" as="geometry"/>
                </mxCell>
                <mxCell id="-OJOVilmV5lf9Wo72msT-4" value="Threat Data Management" style="shape=process;whiteSpace=wrap;html=1;backgroundOutline=1;" parent="1" vertex="1">
                    <mxGeometry x="630" y="180" width="140" height="60" as="geometry"/>
                </mxCell>
                <mxCell id="-OJOVilmV5lf9Wo72msT-5" value="Endpoint Logs Collection" style="shape=process;whiteSpace=wrap;html=1;backgroundOutline=1;" parent="1" vertex="1">
                    <mxGeometry x="630" y="250" width="140" height="60" as="geometry"/>
                </mxCell>
                <mxCell id="-OJOVilmV5lf9Wo72msT-6" value="Malware Analysis" style="shape=process;whiteSpace=wrap;html=1;backgroundOutline=1;" parent="1" vertex="1">
                    <mxGeometry x="630" y="320" width="140" height="60" as="geometry"/>
                </mxCell>
                <mxCell id="-OJOVilmV5lf9Wo72msT-7" value="Threat Emulation" style="shape=process;whiteSpace=wrap;html=1;backgroundOutline=1;" parent="1" vertex="1">
                    <mxGeometry x="630" y="390" width="140" height="60" as="geometry"/>
                </mxCell>
                <mxCell id="-OJOVilmV5lf9Wo72msT-8" value="Data Analysis and Dashboarding" style="shape=process;whiteSpace=wrap;html=1;backgroundOutline=1;" parent="1" vertex="1">
                    <mxGeometry x="630" y="460" width="140" height="70" as="geometry"/>
                </mxCell>
                <mxCell id="-OJOVilmV5lf9Wo72msT-15" value="Infrastructure Automation Utilities" style="shape=process;whiteSpace=wrap;html=1;backgroundOutline=1;" parent="1" vertex="1">
                    <mxGeometry x="630" y="540" width="140" height="60" as="geometry"/>
                </mxCell>
                <mxCell id="-OJOVilmV5lf9Wo72msT-17" style="edgeStyle=none;html=1;entryX=0;entryY=0.5;entryDx=0;entryDy=0;" parent="1" source="-OJOVilmV5lf9Wo72msT-9" target="-OJOVilmV5lf9Wo72msT-4" edge="1">
                    <mxGeometry relative="1" as="geometry"/>
                </mxCell>
                <mxCell id="-OJOVilmV5lf9Wo72msT-25" style="edgeStyle=none;html=1;entryX=0;entryY=0.5;entryDx=0;entryDy=0;" parent="1" source="-OJOVilmV5lf9Wo72msT-10" target="-OJOVilmV5lf9Wo72msT-6" edge="1">
                    <mxGeometry relative="1" as="geometry"/>
                </mxCell>
                <mxCell id="-OJOVilmV5lf9Wo72msT-26" style="edgeStyle=none;html=1;entryX=0;entryY=0.5;entryDx=0;entryDy=0;" parent="1" source="-OJOVilmV5lf9Wo72msT-10" target="-OJOVilmV5lf9Wo72msT-4" edge="1">
                    <mxGeometry relative="1" as="geometry"/>
                </mxCell>
                <mxCell id="-OJOVilmV5lf9Wo72msT-27" style="edgeStyle=none;html=1;entryX=0;entryY=0.5;entryDx=0;entryDy=0;" parent="1" source="-OJOVilmV5lf9Wo72msT-11" target="-OJOVilmV5lf9Wo72msT-4" edge="1">
                    <mxGeometry relative="1" as="geometry"/>
                </mxCell>
                <mxCell id="-OJOVilmV5lf9Wo72msT-28" style="edgeStyle=none;html=1;entryX=0;entryY=0.5;entryDx=0;entryDy=0;" parent="1" source="-OJOVilmV5lf9Wo72msT-11" target="-OJOVilmV5lf9Wo72msT-7" edge="1">
                    <mxGeometry relative="1" as="geometry"/>
                </mxCell>
                <mxCell id="-OJOVilmV5lf9Wo72msT-29" style="edgeStyle=none;html=1;entryX=0;entryY=0.5;entryDx=0;entryDy=0;" parent="1" source="-OJOVilmV5lf9Wo72msT-12" target="-OJOVilmV5lf9Wo72msT-8" edge="1">
                    <mxGeometry relative="1" as="geometry"/>
                </mxCell>
                <mxCell id="-OJOVilmV5lf9Wo72msT-32" style="edgeStyle=none;html=1;entryX=0;entryY=0.5;entryDx=0;entryDy=0;" parent="1" source="-OJOVilmV5lf9Wo72msT-12" target="-OJOVilmV5lf9Wo72msT-4" edge="1">
                    <mxGeometry relative="1" as="geometry"/>
                </mxCell>
                <mxCell id="-OJOVilmV5lf9Wo72msT-34" style="edgeStyle=none;html=1;entryX=0;entryY=0.5;entryDx=0;entryDy=0;" parent="1" source="-OJOVilmV5lf9Wo72msT-16" target="-OJOVilmV5lf9Wo72msT-15" edge="1">
                    <mxGeometry relative="1" as="geometry"/>
                </mxCell>
                <mxCell id="-OJOVilmV5lf9Wo72msT-35" style="edgeStyle=none;html=1;entryX=0;entryY=0.5;entryDx=0;entryDy=0;" parent="1" source="-OJOVilmV5lf9Wo72msT-11" target="-OJOVilmV5lf9Wo72msT-5" edge="1">
                    <mxGeometry relative="1" as="geometry"/>
                </mxCell>
            </root>
        </mxGraphModel>
    </diagram>
    <diagram id="7oy79MowiUqmGw6LRMXD" name="Page-3">
        <mxGraphModel dx="1402" dy="695" grid="0" gridSize="10" guides="1" tooltips="1" connect="1" arrows="1" fold="1" page="0" pageScale="1" pageWidth="850" pageHeight="1100" math="0" shadow="0">
            <root>
                <mxCell id="0"/>
                <mxCell id="1" parent="0"/>
                <mxCell id="mHw8RqNpbTEVl72fJucP-27" style="edgeStyle=none;html=1;entryX=0.5;entryY=0;entryDx=0;entryDy=0;dashed=1;" edge="1" parent="1" source="mHw8RqNpbTEVl72fJucP-7" target="mHw8RqNpbTEVl72fJucP-21">
                    <mxGeometry relative="1" as="geometry"/>
                </mxCell>
                <mxCell id="mHw8RqNpbTEVl72fJucP-39" value="Threat Data" style="edgeLabel;html=1;align=center;verticalAlign=middle;resizable=0;points=[];" vertex="1" connectable="0" parent="mHw8RqNpbTEVl72fJucP-27">
                    <mxGeometry x="-0.3846" relative="1" as="geometry">
                        <mxPoint y="15" as="offset"/>
                    </mxGeometry>
                </mxCell>
                <mxCell id="mHw8RqNpbTEVl72fJucP-28" style="edgeStyle=none;html=1;entryX=0.5;entryY=1;entryDx=0;entryDy=0;dashed=1;" edge="1" parent="1" source="mHw8RqNpbTEVl72fJucP-7" target="mHw8RqNpbTEVl72fJucP-8">
                    <mxGeometry relative="1" as="geometry">
                        <Array as="points">
                            <mxPoint x="380" y="250"/>
                        </Array>
                    </mxGeometry>
                </mxCell>
                <mxCell id="mHw8RqNpbTEVl72fJucP-40" value="IOCs" style="edgeLabel;html=1;align=center;verticalAlign=middle;resizable=0;points=[];" vertex="1" connectable="0" parent="mHw8RqNpbTEVl72fJucP-28">
                    <mxGeometry x="0.1325" relative="1" as="geometry">
                        <mxPoint y="6" as="offset"/>
                    </mxGeometry>
                </mxCell>
                <mxCell id="mHw8RqNpbTEVl72fJucP-29" style="edgeStyle=none;html=1;entryX=0;entryY=0.5;entryDx=0;entryDy=0;dashed=1;" edge="1" parent="1" source="mHw8RqNpbTEVl72fJucP-7" target="mHw8RqNpbTEVl72fJucP-22">
                    <mxGeometry relative="1" as="geometry"/>
                </mxCell>
                <mxCell id="mHw8RqNpbTEVl72fJucP-37" value="Threat Data" style="edgeLabel;html=1;align=center;verticalAlign=middle;resizable=0;points=[];" vertex="1" connectable="0" parent="mHw8RqNpbTEVl72fJucP-29">
                    <mxGeometry x="-0.2199" y="1" relative="1" as="geometry">
                        <mxPoint x="13" y="1" as="offset"/>
                    </mxGeometry>
                </mxCell>
                <mxCell id="mHw8RqNpbTEVl72fJucP-7" value="&lt;b&gt;Threat Intel Platform (TIP)&lt;/b&gt;" style="html=1;fillColor=#dae8fc;strokeColor=#6c8ebf;" vertex="1" parent="1">
                    <mxGeometry x="300" y="275" width="160" height="80" as="geometry"/>
                </mxCell>
                <mxCell id="mHw8RqNpbTEVl72fJucP-8" value="&lt;b&gt;SIEM&lt;/b&gt;" style="html=1;fillColor=#dae8fc;strokeColor=#6c8ebf;" vertex="1" parent="1">
                    <mxGeometry x="300" y="150" width="160" height="70" as="geometry"/>
                </mxCell>
                <mxCell id="mHw8RqNpbTEVl72fJucP-23" style="edgeStyle=none;html=1;dashed=1;" edge="1" parent="1">
                    <mxGeometry relative="1" as="geometry">
                        <mxPoint x="230" y="290" as="sourcePoint"/>
                        <mxPoint x="300" y="290" as="targetPoint"/>
                    </mxGeometry>
                </mxCell>
                <mxCell id="mHw8RqNpbTEVl72fJucP-15" value="Internet-Facing Data Feeds" style="swimlane;fillColor=none;" vertex="1" parent="1">
                    <mxGeometry x="30" y="140" width="200" height="300" as="geometry"/>
                </mxCell>
                <mxCell id="mHw8RqNpbTEVl72fJucP-16" value="&lt;b&gt;IOCs&lt;/b&gt;" style="ellipse;whiteSpace=wrap;html=1;aspect=fixed;fillColor=#dae8fc;strokeColor=#6c8ebf;" vertex="1" parent="mHw8RqNpbTEVl72fJucP-15">
                    <mxGeometry x="60" y="30" width="80" height="80" as="geometry"/>
                </mxCell>
                <mxCell id="mHw8RqNpbTEVl72fJucP-17" value="&lt;b&gt;Threat Reports&lt;/b&gt;" style="ellipse;whiteSpace=wrap;html=1;aspect=fixed;fillColor=#dae8fc;strokeColor=#6c8ebf;" vertex="1" parent="mHw8RqNpbTEVl72fJucP-15">
                    <mxGeometry x="60" y="120" width="80" height="80" as="geometry"/>
                </mxCell>
                <mxCell id="mHw8RqNpbTEVl72fJucP-18" value="&lt;b&gt;TTPs&lt;/b&gt;" style="ellipse;whiteSpace=wrap;html=1;aspect=fixed;fillColor=#dae8fc;strokeColor=#6c8ebf;" vertex="1" parent="mHw8RqNpbTEVl72fJucP-15">
                    <mxGeometry x="60" y="210" width="80" height="80" as="geometry"/>
                </mxCell>
                <mxCell id="mHw8RqNpbTEVl72fJucP-31" style="edgeStyle=none;html=1;entryX=1;entryY=0.129;entryDx=0;entryDy=0;entryPerimeter=0;dashed=1;" edge="1" parent="1" source="mHw8RqNpbTEVl72fJucP-19" target="mHw8RqNpbTEVl72fJucP-8">
                    <mxGeometry relative="1" as="geometry"/>
                </mxCell>
                <mxCell id="mHw8RqNpbTEVl72fJucP-36" value="Endpoint Logs" style="edgeLabel;html=1;align=center;verticalAlign=middle;resizable=0;points=[];" vertex="1" connectable="0" parent="mHw8RqNpbTEVl72fJucP-31">
                    <mxGeometry x="-0.1575" y="-3" relative="1" as="geometry">
                        <mxPoint y="3" as="offset"/>
                    </mxGeometry>
                </mxCell>
                <mxCell id="mHw8RqNpbTEVl72fJucP-19" value="&lt;b&gt;Threat Emulation Sandbox&lt;/b&gt;" style="shape=mxgraph.signs.tech.computer;html=1;pointerEvents=1;fillColor=#dae8fc;strokeColor=#6c8ebf;verticalLabelPosition=bottom;verticalAlign=top;align=center;" vertex="1" parent="1">
                    <mxGeometry x="577.5" y="110" width="98" height="98" as="geometry"/>
                </mxCell>
                <mxCell id="mHw8RqNpbTEVl72fJucP-34" style="edgeStyle=none;html=1;exitX=0.007;exitY=0.007;exitDx=0;exitDy=0;exitPerimeter=0;entryX=1;entryY=1;entryDx=0;entryDy=0;dashed=1;" edge="1" parent="1" source="mHw8RqNpbTEVl72fJucP-20" target="mHw8RqNpbTEVl72fJucP-7">
                    <mxGeometry relative="1" as="geometry"/>
                </mxCell>
                <mxCell id="mHw8RqNpbTEVl72fJucP-38" value="Analysis Output" style="edgeLabel;html=1;align=center;verticalAlign=middle;resizable=0;points=[];" vertex="1" connectable="0" parent="mHw8RqNpbTEVl72fJucP-34">
                    <mxGeometry x="0.2345" y="-1" relative="1" as="geometry">
                        <mxPoint x="13" y="11" as="offset"/>
                    </mxGeometry>
                </mxCell>
                <mxCell id="mHw8RqNpbTEVl72fJucP-20" value="&lt;b&gt;Malware Detonation Sandbox&lt;/b&gt;" style="shape=mxgraph.signs.tech.computer;html=1;pointerEvents=1;fillColor=#dae8fc;strokeColor=#6c8ebf;verticalLabelPosition=bottom;verticalAlign=top;align=center;" vertex="1" parent="1">
                    <mxGeometry x="580.5" y="420" width="98" height="98" as="geometry"/>
                </mxCell>
                <mxCell id="mHw8RqNpbTEVl72fJucP-21" value="&lt;b&gt;Data Analysis &amp;amp; &lt;br&gt;Visualization&lt;/b&gt;" style="html=1;fillColor=#dae8fc;strokeColor=#6c8ebf;" vertex="1" parent="1">
                    <mxGeometry x="300" y="420" width="160" height="80" as="geometry"/>
                </mxCell>
                <mxCell id="mHw8RqNpbTEVl72fJucP-32" style="edgeStyle=none;html=1;entryX=0.5;entryY=0;entryDx=0;entryDy=0;entryPerimeter=0;dashed=1;" edge="1" parent="1" source="mHw8RqNpbTEVl72fJucP-22" target="mHw8RqNpbTEVl72fJucP-20">
                    <mxGeometry relative="1" as="geometry"/>
                </mxCell>
                <mxCell id="mHw8RqNpbTEVl72fJucP-48" style="html=1;entryX=-0.004;entryY=0.413;entryDx=0;entryDy=0;entryPerimeter=0;dashed=1;" edge="1" parent="1" source="mHw8RqNpbTEVl72fJucP-22" target="mHw8RqNpbTEVl72fJucP-41">
                    <mxGeometry relative="1" as="geometry"/>
                </mxCell>
                <mxCell id="mHw8RqNpbTEVl72fJucP-49" value="Commands" style="edgeLabel;html=1;align=center;verticalAlign=middle;resizable=0;points=[];" vertex="1" connectable="0" parent="mHw8RqNpbTEVl72fJucP-48">
                    <mxGeometry x="-0.3008" relative="1" as="geometry">
                        <mxPoint x="8" y="9" as="offset"/>
                    </mxGeometry>
                </mxCell>
                <mxCell id="mHw8RqNpbTEVl72fJucP-22" value="&lt;b&gt;Automation / Orchestration Utility&lt;/b&gt;" style="ellipse;whiteSpace=wrap;html=1;aspect=fixed;fillColor=#dae8fc;strokeColor=#6c8ebf;" vertex="1" parent="1">
                    <mxGeometry x="580.5" y="267.5" width="95" height="95" as="geometry"/>
                </mxCell>
                <mxCell id="mHw8RqNpbTEVl72fJucP-25" style="edgeStyle=none;html=1;dashed=1;" edge="1" parent="1">
                    <mxGeometry relative="1" as="geometry">
                        <mxPoint x="230" y="314.5" as="sourcePoint"/>
                        <mxPoint x="300" y="314.5" as="targetPoint"/>
                    </mxGeometry>
                </mxCell>
                <mxCell id="mHw8RqNpbTEVl72fJucP-26" style="edgeStyle=none;html=1;dashed=1;" edge="1" parent="1">
                    <mxGeometry relative="1" as="geometry">
                        <mxPoint x="230" y="340" as="sourcePoint"/>
                        <mxPoint x="300" y="340" as="targetPoint"/>
                    </mxGeometry>
                </mxCell>
                <mxCell id="mHw8RqNpbTEVl72fJucP-43" style="edgeStyle=orthogonalEdgeStyle;html=1;entryX=0.995;entryY=0.5;entryDx=0;entryDy=0;entryPerimeter=0;dashed=1;exitX=0.5;exitY=0;exitDx=0;exitDy=0;exitPerimeter=0;" edge="1" parent="1" source="mHw8RqNpbTEVl72fJucP-41" target="mHw8RqNpbTEVl72fJucP-19">
                    <mxGeometry relative="1" as="geometry"/>
                </mxCell>
                <mxCell id="mHw8RqNpbTEVl72fJucP-44" value="Execute Attacks" style="edgeLabel;html=1;align=center;verticalAlign=middle;resizable=0;points=[];" vertex="1" connectable="0" parent="mHw8RqNpbTEVl72fJucP-43">
                    <mxGeometry x="-0.5214" relative="1" as="geometry">
                        <mxPoint as="offset"/>
                    </mxGeometry>
                </mxCell>
                <mxCell id="mHw8RqNpbTEVl72fJucP-41" value="&lt;b&gt;Attack Simulation Host&lt;/b&gt;" style="shape=mxgraph.signs.tech.computer;html=1;pointerEvents=1;fillColor=#dae8fc;strokeColor=#6c8ebf;verticalLabelPosition=bottom;verticalAlign=top;align=center;" vertex="1" parent="1">
                    <mxGeometry x="752" y="275" width="98" height="98" as="geometry"/>
                </mxCell>
            </root>
        </mxGraphModel>
    </diagram>
</mxfile>